<svg width="306" height="77" viewBox="0 0 306 77" fill="none" xmlns="http://www.w3.org/2000/svg">
<path d="M3.09091 20.4545V15.4545H38V20.4545H23.3636V62H17.7273V20.4545H3.09091ZM42.3466 62V27.0909H47.5284V32.3636H47.892C48.5284 30.6364 49.6799 29.2348 51.3466 28.1591C53.0133 27.0833 54.892 26.5455 56.983 26.5455C57.3769 26.5455 57.8693 26.553 58.4602 26.5682C59.0511 26.5833 59.4981 26.6061 59.8011 26.6364V32.0909C59.6193 32.0455 59.2027 31.9773 58.5511 31.8864C57.9148 31.7803 57.2405 31.7273 56.5284 31.7273C54.8314 31.7273 53.3163 32.0833 51.983 32.7955C50.6648 33.4924 49.6193 34.4621 48.8466 35.7045C48.089 36.9318 47.7102 38.3333 47.7102 39.9091V62H42.3466ZM76.4318 62.8182C74.2197 62.8182 72.2121 62.4015 70.4091 61.5682C68.6061 60.7197 67.1742 59.5 66.1136 57.9091C65.053 56.303 64.5227 54.3636 64.5227 52.0909C64.5227 50.0909 64.9167 48.4697 65.7045 47.2273C66.4924 45.9697 67.5455 44.9848 68.8636 44.2727C70.1818 43.5606 71.6364 43.0303 73.2273 42.6818C74.8333 42.3182 76.447 42.0303 78.0682 41.8182C80.1894 41.5455 81.9091 41.3409 83.2273 41.2045C84.5606 41.053 85.5303 40.803 86.1364 40.4545C86.7576 40.1061 87.0682 39.5 87.0682 38.6364V38.4545C87.0682 36.2121 86.4545 34.4697 85.2273 33.2273C84.0152 31.9848 82.1742 31.3636 79.7045 31.3636C77.1439 31.3636 75.1364 31.9242 73.6818 33.0455C72.2273 34.1667 71.2045 35.3636 70.6136 36.6364L65.5227 34.8182C66.4318 32.697 67.6439 31.0455 69.1591 29.8636C70.6894 28.6667 72.3561 27.8333 74.1591 27.3636C75.9773 26.8788 77.7652 26.6364 79.5227 26.6364C80.6439 26.6364 81.9318 26.7727 83.3864 27.0455C84.8561 27.303 86.2727 27.8409 87.6364 28.6591C89.0152 29.4773 90.1591 30.7121 91.0682 32.3636C91.9773 34.0152 92.4318 36.2273 92.4318 39V62H87.0682V57.2727H86.7955C86.4318 58.0303 85.8258 58.8409 84.9773 59.7045C84.1288 60.5682 83 61.303 81.5909 61.9091C80.1818 62.5152 78.4621 62.8182 76.4318 62.8182ZM77.25 58C79.3712 58 81.1591 57.5833 82.6136 56.75C84.0833 55.9167 85.1894 54.8409 85.9318 53.5227C86.6894 52.2045 87.0682 50.8182 87.0682 49.3636V44.4545C86.8409 44.7273 86.3409 44.9773 85.5682 45.2045C84.8106 45.4167 83.9318 45.6061 82.9318 45.7727C81.947 45.9242 80.9848 46.0606 80.0455 46.1818C79.1212 46.2879 78.3712 46.3788 77.7955 46.4545C76.4015 46.6364 75.0985 46.9318 73.8864 47.3409C72.6894 47.7348 71.7197 48.3333 70.9773 49.1364C70.25 49.9242 69.8864 51 69.8864 52.3636C69.8864 54.2273 70.5758 55.6364 71.9545 56.5909C73.3485 57.5303 75.1136 58 77.25 58ZM129.517 27.0909L116.608 62H111.153L98.2443 27.0909H104.062L113.699 54.9091H114.062L123.699 27.0909H129.517ZM149.983 62.7273C146.619 62.7273 143.718 61.9848 141.278 60.5C138.854 59 136.983 56.9091 135.665 54.2273C134.362 51.5303 133.71 48.3939 133.71 44.8182C133.71 41.2424 134.362 38.0909 135.665 35.3636C136.983 32.6212 138.816 30.4848 141.165 28.9545C143.528 27.4091 146.286 26.6364 149.438 26.6364C151.256 26.6364 153.051 26.9394 154.824 27.5455C156.597 28.1515 158.21 29.1364 159.665 30.5C161.119 31.8485 162.278 33.6364 163.142 35.8636C164.006 38.0909 164.438 40.8333 164.438 44.0909V46.3636H137.528V41.7273H158.983C158.983 39.7576 158.589 38 157.801 36.4545C157.028 34.9091 155.922 33.6894 154.483 32.7955C153.059 31.9015 151.377 31.4545 149.438 31.4545C147.301 31.4545 145.453 31.9848 143.892 33.0455C142.347 34.0909 141.157 35.4545 140.324 37.1364C139.491 38.8182 139.074 40.6212 139.074 42.5455V45.6364C139.074 48.2727 139.528 50.5076 140.438 52.3409C141.362 54.1591 142.642 55.5455 144.278 56.5C145.915 57.4394 147.816 57.9091 149.983 57.9091C151.392 57.9091 152.665 57.7121 153.801 57.3182C154.953 56.9091 155.945 56.303 156.778 55.5C157.612 54.6818 158.256 53.6667 158.71 52.4545L163.892 53.9091C163.347 55.6667 162.43 57.2121 161.142 58.5455C159.854 59.8636 158.263 60.8939 156.369 61.6364C154.475 62.3636 152.347 62.7273 149.983 62.7273ZM177.96 15.4545V62H172.597V15.4545H177.96ZM203.33 27.0909V31.6364H184.511V27.0909H203.33ZM190.148 62V22.2727C190.148 20.2727 190.617 18.6061 191.557 17.2727C192.496 15.9394 193.716 14.9394 195.216 14.2727C196.716 13.6061 198.299 13.2727 199.966 13.2727C201.284 13.2727 202.36 13.3788 203.193 13.5909C204.027 13.803 204.648 14 205.057 14.1818L203.511 18.8182C203.239 18.7273 202.86 18.6136 202.375 18.4773C201.905 18.3409 201.284 18.2727 200.511 18.2727C198.739 18.2727 197.458 18.7197 196.67 19.6136C195.898 20.5076 195.511 21.8182 195.511 23.5455V62H190.148ZM214.301 75.0909C213.392 75.0909 212.581 75.0152 211.869 74.8636C211.157 74.7273 210.665 74.5909 210.392 74.4545L211.756 69.7273C213.059 70.0606 214.21 70.1818 215.21 70.0909C216.21 70 217.097 69.553 217.869 68.75C218.657 67.9621 219.377 66.6818 220.028 64.9091L221.028 62.1818L208.119 27.0909H213.938L223.574 54.9091H223.938L233.574 27.0909H239.392L224.574 67.0909C223.907 68.8939 223.081 70.3864 222.097 71.5682C221.112 72.7652 219.968 73.6515 218.665 74.2273C217.377 74.803 215.922 75.0909 214.301 75.0909Z" fill="white"/>
<path fill-rule="evenodd" clip-rule="evenodd" d="M302.028 71L306 63.1696C288.428 63.1696 263.793 65.3523 254.2 58.733C241.942 56.5668 242 54.3231 242 54.3231C242 54.3231 244.736 71 254.2 71C267.036 71 302.028 71 302.028 71Z" fill="white"/>
<path fill-rule="evenodd" clip-rule="evenodd" d="M286.108 54.2836L286.097 15.7864L305.784 54.2836H286.108Z" fill="white"/>
<path fill-rule="evenodd" clip-rule="evenodd" d="M282.081 54.4193V7L261.926 51.1246L282.081 54.4193Z" fill="white"/>
</svg>
